<svg xmlns="http://www.w3.org/2000/svg" width="20" height="20" viewBox="0 0 20 20">
  <g id="r-instagram" transform="translate(-2 -2)">
    <path id="Path_4" data-name="Path 4" d="M7.5,3h9A4.5,4.5,0,0,1,21,7.5v9A4.5,4.5,0,0,1,16.5,21h-9A4.5,4.5,0,0,1,3,16.5v-9A4.5,4.5,0,0,1,7.5,3Z" fill="none" stroke="#b7b7b7" stroke-linecap="round" stroke-linejoin="round" stroke-width="2"/>
    <path id="Path_5" data-name="Path 5" d="M19.226,15.007a3.6,3.6,0,1,1-3.033-3.033,3.6,3.6,0,0,1,3.033,3.033Z" transform="translate(-3.626 -3.574)" fill="none" stroke="#b7b7b7" stroke-linecap="round" stroke-linejoin="round" stroke-width="2"/>
    <path id="Path_6" data-name="Path 6" d="M26.25,9.75h0" transform="translate(-9.3 -2.7)" fill="none" stroke="#b7b7b7" stroke-linecap="round" stroke-linejoin="round" stroke-width="2"/>
  </g>
</svg>
